<svg width="100%" height="100%" id="svg" viewBox="0 0 1440 690" xmlns="http://www.w3.org/2000/svg" class="transition duration-300 ease-in-out delay-150"><defs><linearGradient id="gradient" x1="89%" y1="19%" x2="11%" y2="81%"><stop offset="5%" stop-color="#fcb900"></stop><stop offset="95%" stop-color="#eb144c"></stop></linearGradient></defs><path d="M 0,700 L 0,105 C 74.56459330143542,125.00956937799043 149.12918660287085,145.01913875598086 247,129 C 344.87081339712915,112.98086124401914 466.0478468899521,60.933014354066984 580,63 C 693.9521531100479,65.06698564593302 800.6794258373207,121.24880382775117 901,130 C 1001.3205741626793,138.75119617224883 1095.2344497607655,100.07177033492823 1184,88 C 1272.7655502392345,75.92822966507177 1356.3827751196172,90.46411483253588 1440,105 L 1440,700 L 0,700 Z" stroke="none" stroke-width="0" fill="url(#gradient)" fill-opacity="0.265" class="transition-all duration-300 ease-in-out delay-150 path-0"></path>
         <defs><linearGradient id="gradient" x1="89%" y1="19%" x2="11%" y2="81%"><stop offset="5%" stop-color="#fcb900"></stop><stop offset="95%" stop-color="#eb144c"></stop></linearGradient></defs><path d="M 0,700 L 0,245 C 103.57894736842104,228.1578947368421 207.15789473684208,211.31578947368422 305,208 C 402.8421052631579,204.68421052631578 494.9473684210527,214.89473684210523 587,219 C 679.0526315789473,223.10526315789477 771.0526315789473,221.10526315789474 858,238 C 944.9473684210527,254.89473684210526 1026.842105263158,290.6842105263158 1123,295 C 1219.157894736842,299.3157894736842 1329.578947368421,272.1578947368421 1440,245 L 1440,700 L 0,700 Z" stroke="none" stroke-width="0" fill="url(#gradient)" fill-opacity="0.4" class="transition-all duration-300 ease-in-out delay-150 path-1"></path>
          <defs><linearGradient id="gradient" x1="89%" y1="19%" x2="11%" y2="81%"><stop offset="5%" stop-color="#fcb900"></stop><stop offset="95%" stop-color="#eb144c"></stop></linearGradient></defs><path d="M 0,700 L 0,385 C 121.26315789473685,358.1961722488038 242.5263157894737,331.39234449760767 324,339 C 405.4736842105263,346.60765550239233 447.1578947368422,388.6267942583732 542,397 C 636.8421052631578,405.3732057416268 784.842105263158,380.10047846889955 892,375 C 999.157894736842,369.89952153110045 1065.4736842105262,384.9712918660287 1150,390 C 1234.5263157894738,395.0287081339713 1337.2631578947369,390.0143540669857 1440,385 L 1440,700 L 0,700 Z" stroke="none" stroke-width="0" fill="url(#gradient)" fill-opacity="0.53" class="transition-all duration-300 ease-in-out delay-150 path-2"></path>
          <defs><linearGradient id="gradient" x1="89%" y1="19%" x2="11%" y2="81%"><stop offset="5%" stop-color="#fcb900"></stop><stop offset="95%" stop-color="#eb144c"></stop></linearGradient></defs><path d="M 0,700 L 0,525 C 102.20095693779902,537.7177033492823 204.40191387559804,550.4354066985645 299,559 C 393.59808612440196,567.5645933014355 480.5933014354067,571.9760765550241 561,571 C 641.4066985645933,570.0239234449759 715.2248803827752,563.6602870813397 822,549 C 928.7751196172248,534.3397129186603 1068.5071770334928,511.38277511961724 1177,506 C 1285.4928229665072,500.61722488038276 1362.7464114832537,512.8086124401914 1440,525 L 1440,700 L 0,700 Z" stroke="none" stroke-width="0" fill="url(#gradient)" fill-opacity="1" class="transition-all duration-300 ease-in-out delay-150 path-3"></path></svg>